<svg width="46" height="47" viewBox="0 0 46 47" fill="none" xmlns="http://www.w3.org/2000/svg">
<path d="M23 0.5C18.451 0.5 14.0042 1.84893 10.2219 4.3762C6.43956 6.90347 3.4916 10.4956 1.75078 14.6983C0.00996558 18.901 -0.445511 23.5255 0.441949 27.9871C1.32941 32.4486 3.51995 36.5468 6.73655 39.7634C9.95316 42.9801 14.0514 45.1706 18.5129 46.0581C22.9745 46.9455 27.599 46.49 31.8017 44.7492C36.0044 43.0084 39.5965 40.0604 42.1238 36.2781C44.6511 32.4958 46 28.049 46 23.5C46 20.4796 45.4051 17.4888 44.2492 14.6983C43.0934 11.9078 41.3992 9.37229 39.2635 7.23654C37.1277 5.1008 34.5922 3.40663 31.8017 2.25077C29.0112 1.09491 26.0204 0.5 23 0.5ZM28.8267 31.826L23 25.9993L17.1733 31.826C17.0092 31.9901 16.8144 32.1203 16.6 32.2091C16.3856 32.2979 16.1558 32.3436 15.9237 32.3436C15.6916 32.3436 15.4618 32.2979 15.2474 32.2091C15.0329 32.1203 14.8381 31.9901 14.674 31.826C14.5099 31.6619 14.3797 31.4671 14.2909 31.2526C14.2021 31.0382 14.1564 30.8084 14.1564 30.5763C14.1564 30.3442 14.2021 30.1144 14.2909 29.9C14.3797 29.6856 14.5099 29.4908 14.674 29.3267L20.5007 23.5L14.674 17.6733C14.3426 17.3419 14.1564 16.8924 14.1564 16.4237C14.1564 15.9549 14.3426 15.5054 14.674 15.174C15.0054 14.8426 15.455 14.6564 15.9237 14.6564C16.3924 14.6564 16.8419 14.8426 17.1733 15.174L23 21.0007L28.8267 15.174C28.9908 15.0099 29.1856 14.8797 29.4 14.7909C29.6144 14.7021 29.8443 14.6564 30.0763 14.6564C30.3084 14.6564 30.5382 14.7021 30.7527 14.7909C30.9671 14.8797 31.1619 15.0099 31.326 15.174C31.4901 15.3381 31.6203 15.5329 31.7091 15.7473C31.7979 15.9618 31.8436 16.1916 31.8436 16.4237C31.8436 16.6557 31.7979 16.8856 31.7091 17.1C31.6203 17.3144 31.4901 17.5092 31.326 17.6733L25.4993 23.5L31.326 29.3267C31.6554 29.6592 31.8402 30.1083 31.8402 30.5763C31.8402 31.0444 31.6554 31.4935 31.326 31.826C31.1628 31.9917 30.9683 32.1233 30.7537 32.2131C30.5392 32.3029 30.3089 32.3491 30.0763 32.3491C29.8438 32.3491 29.6135 32.3029 29.399 32.2131C29.1844 32.1233 28.9899 31.9917 28.8267 31.826Z" fill="#666666"/>
</svg>
